<?xml version="1.0" encoding="UTF-8"?>
<svg version="1.1" xmlns="http://www.w3.org/2000/svg" width="612" height="612">
<path d="M0 0 C201.96 0 403.92 0 612 0 C612 201.96 612 403.92 612 612 C410.04 612 208.08 612 0 612 C0 410.04 0 208.08 0 0 Z " fill="#F9F9F9" fill-opacity="10%" transform="translate(0,0)"/>
<path d="M0 0 C3.22814276 1.18720953 6.54306852 1.91820117 9.890625 2.6953125 C9.890625 3.3553125 9.890625 4.0153125 9.890625 4.6953125 C11.540625 4.6953125 13.190625 4.6953125 14.890625 4.6953125 C14.890625 5.3553125 14.890625 6.0153125 14.890625 6.6953125 C16.0353125 6.788125 16.0353125 6.788125 17.203125 6.8828125 C22.48053239 8.04563108 27.04325834 10.34736927 31.890625 12.6953125 C32.90125 13.17484375 33.911875 13.654375 34.953125 14.1484375 C40.55122758 16.86180355 45.77041871 19.78268712 50.87890625 23.33203125 C52.67740741 24.55082136 54.4792758 25.60497025 56.390625 26.6328125 C60.13441252 28.70402828 63.34676939 31.35987175 66.6796875 34.02734375 C68.65640407 35.51861226 70.58629908 36.7195858 72.765625 37.8828125 C75.78131516 39.63191279 76.96400874 40.90171892 78.890625 43.6953125 C79.880625 44.0253125 80.870625 44.3553125 81.890625 44.6953125 C81.890625 45.3553125 81.890625 46.0153125 81.890625 46.6953125 C82.756875 47.0975 82.756875 47.0975 83.640625 47.5078125 C85.94612543 48.72460439 87.91118692 49.99865129 89.890625 51.6953125 C89.890625 52.3553125 89.890625 53.0153125 89.890625 53.6953125 C91.210625 54.3553125 92.530625 55.0153125 93.890625 55.6953125 C93.890625 56.3553125 93.890625 57.0153125 93.890625 57.6953125 C95.210625 58.3553125 96.530625 59.0153125 97.890625 59.6953125 C97.890625 60.3553125 97.890625 61.0153125 97.890625 61.6953125 C98.550625 61.6953125 99.210625 61.6953125 99.890625 61.6953125 C99.890625 62.3553125 99.890625 63.0153125 99.890625 63.6953125 C100.550625 63.6953125 101.210625 63.6953125 101.890625 63.6953125 C103.48288748 65.8653388 104.84794402 68.14163478 106.2578125 70.43359375 C107.92341973 72.74073869 109.62298954 74.02158156 111.890625 75.6953125 C111.890625 76.3553125 111.890625 77.0153125 111.890625 77.6953125 C112.550625 77.6953125 113.210625 77.6953125 113.890625 77.6953125 C114.1175 78.4171875 114.344375 79.1390625 114.578125 79.8828125 C115.72488249 82.79596272 115.72488249 82.79596272 118.0859375 84.75 C121.9117283 88.46503876 124.38956851 93.06991008 127.078125 97.6328125 C127.61115234 98.51388672 128.14417969 99.39496094 128.69335938 100.30273438 C131.2940481 104.66992865 133.56132406 108.74509367 134.890625 113.6953125 C135.550625 113.6953125 136.210625 113.6953125 136.890625 113.6953125 C137.70818738 115.75581105 138.51947234 117.81880103 139.328125 119.8828125 C139.78058594 121.03136719 140.23304688 122.17992187 140.69921875 123.36328125 C141.70155801 126.16654483 142.41075295 128.76643826 142.890625 131.6953125 C143.550625 131.6953125 144.210625 131.6953125 144.890625 131.6953125 C145.56322851 133.46389941 146.22850895 135.23527266 146.890625 137.0078125 C147.261875 137.99394531 147.633125 138.98007813 148.015625 139.99609375 C148.890625 142.6953125 148.890625 142.6953125 148.890625 145.6953125 C149.550625 145.6953125 150.210625 145.6953125 150.890625 145.6953125 C151.15617187 146.92507812 151.42171875 148.15484375 151.6953125 149.421875 C152.05191191 151.05472495 152.40869233 152.68753537 152.765625 154.3203125 C153.02666016 155.53267578 153.02666016 155.53267578 153.29296875 156.76953125 C154.03091773 160.13129885 154.77368263 163.36566739 155.92578125 166.61328125 C157.33773354 171.12352562 157.84554636 175.70542137 158.453125 180.3828125 C158.70190448 182.26205442 158.95310089 184.1409784 159.20703125 186.01953125 C159.36860718 187.2583606 159.36860718 187.2583606 159.53344727 188.5222168 C159.8600363 190.86717381 159.8600363 190.86717381 160.890625 193.6953125 C160.98684964 195.16945019 161.02872207 196.64749835 161.03588867 198.12475586 C161.04545845 199.46907936 161.04545845 199.46907936 161.05522156 200.84056091 C161.05689079 202.2981356 161.05689079 202.2981356 161.05859375 203.78515625 C161.06192215 204.79888809 161.06525055 205.81261993 161.06867981 206.85707092 C161.07375131 209.01497952 161.07608807 211.17289599 161.07592773 213.33081055 C161.07807733 216.56117682 161.09612602 219.79118028 161.11523438 223.02148438 C161.15999563 239.10905118 160.67431752 254.9998075 156.890625 270.6953125 C156.230625 270.6953125 155.570625 270.6953125 154.890625 270.6953125 C154.7875 271.7884375 154.684375 272.8815625 154.578125 274.0078125 C153.51444616 282.39905672 150.78568055 290.32443181 147.7578125 298.1875 C146.89637425 300.6786863 146.34607301 303.10204732 145.890625 305.6953125 C145.230625 305.6953125 144.570625 305.6953125 143.890625 305.6953125 C143.68566406 306.53835938 143.48070312 307.38140625 143.26953125 308.25 C142.86541016 309.89355469 142.86541016 309.89355469 142.453125 311.5703125 C142.05287109 313.20613281 142.05287109 313.20613281 141.64453125 314.875 C140.890625 317.6953125 140.890625 317.6953125 139.890625 319.6953125 C139.230625 319.6953125 138.570625 319.6953125 137.890625 319.6953125 C137.5503125 320.84 137.5503125 320.84 137.203125 322.0078125 C134.0475775 330.87339835 130.17224173 340.49392286 123.34765625 347.21484375 C121.76363601 348.82434421 120.78469585 350.40614853 119.703125 352.3828125 C119.105 353.4759375 118.506875 354.5690625 117.890625 355.6953125 C117.230625 355.6953125 116.570625 355.6953125 115.890625 355.6953125 C115.890625 356.6853125 115.890625 357.6753125 115.890625 358.6953125 C114.81705034 359.83815004 113.72842945 360.96902632 112.5859375 362.04296875 C110.3991902 364.17429158 108.37132631 366.4262127 106.328125 368.6953125 C105.21244141 369.9328125 105.21244141 369.9328125 104.07421875 371.1953125 C102.5705478 372.91686779 101.12743202 374.69258826 99.73828125 376.5078125 C99.12855469 377.2296875 98.51882813 377.9515625 97.890625 378.6953125 C97.230625 378.6953125 96.570625 378.6953125 95.890625 378.6953125 C95.890625 379.6853125 95.890625 380.6753125 95.890625 381.6953125 C90.54178779 386.6953125 90.54178779 386.6953125 87.890625 386.6953125 C87.890625 387.3553125 87.890625 388.0153125 87.890625 388.6953125 C86.28125 390.38671875 86.28125 390.38671875 84.140625 392.2578125 C83.44453125 392.87785156 82.7484375 393.49789063 82.03125 394.13671875 C79.890625 395.6953125 79.890625 395.6953125 77.75 396.16015625 C77.13640625 396.33675781 76.5228125 396.51335937 75.890625 396.6953125 C75.2103883 398.02177406 74.54570635 399.35624915 73.890625 400.6953125 C71.578125 402.6171875 71.578125 402.6171875 68.890625 404.4453125 C68.00375 405.05890625 67.116875 405.6725 66.203125 406.3046875 C63.890625 407.6953125 63.890625 407.6953125 61.890625 407.6953125 C61.890625 408.3553125 61.890625 409.0153125 61.890625 409.6953125 C58.77851726 412.00984489 55.26261436 413.78906649 51.890625 415.6953125 C50.8694458 416.27756592 50.8694458 416.27756592 49.82763672 416.87158203 C25.54674233 430.6953125 25.54674233 430.6953125 19.890625 430.6953125 C19.890625 431.3553125 19.890625 432.0153125 19.890625 432.6953125 C6.98398151 437.25594811 -5.89948611 441.7403382 -19.296875 444.6328125 C-20.5818689 444.91257935 -20.5818689 444.91257935 -21.89282227 445.19799805 C-36.51639837 448.18101324 -50.78022364 449.02047405 -65.66357422 448.95605469 C-68.6053528 448.94532717 -71.54652096 448.95601723 -74.48828125 448.96875 C-90.1677158 448.98250245 -104.84517438 447.57867483 -120.109375 443.7578125 C-121.16253906 443.50580078 -122.21570313 443.25378906 -123.30078125 442.99414062 C-129.09607704 441.57614272 -134.55300784 439.85579667 -140.109375 437.6953125 C-142.54317847 436.97438044 -144.98081683 436.26628474 -147.421875 435.5703125 C-168.64446457 429.12469165 -188.61525755 417.17091938 -206.109375 403.6953125 C-207.58844016 402.61184058 -209.0675998 401.52849762 -210.546875 400.4453125 C-213.304187 398.37593027 -215.67113535 396.13355215 -218.109375 393.6953125 C-219.181875 392.9940625 -220.254375 392.2928125 -221.359375 391.5703125 C-222.266875 390.9515625 -223.174375 390.3328125 -224.109375 389.6953125 C-224.109375 389.0353125 -224.109375 388.3753125 -224.109375 387.6953125 C-224.769375 387.6953125 -225.429375 387.6953125 -226.109375 387.6953125 C-226.109375 387.0353125 -226.109375 386.3753125 -226.109375 385.6953125 C-227.429375 385.0353125 -228.749375 384.3753125 -230.109375 383.6953125 C-230.109375 383.0353125 -230.109375 382.3753125 -230.109375 381.6953125 C-230.69332031 381.44523437 -231.27726562 381.19515625 -231.87890625 380.9375 C-234.40629551 379.52995222 -235.90241454 377.99832561 -237.796875 375.8203125 C-238.69986328 374.80324219 -238.69986328 374.80324219 -239.62109375 373.765625 C-241.11703694 371.68465416 -241.6883506 370.19900424 -242.109375 367.6953125 C-242.769375 367.6953125 -243.429375 367.6953125 -244.109375 367.6953125 C-245.8359375 366.05078125 -245.8359375 366.05078125 -247.734375 363.8828125 C-248.36601562 363.17511719 -248.99765625 362.46742188 -249.6484375 361.73828125 C-251.109375 359.6953125 -251.109375 359.6953125 -251.109375 356.6953125 C-252.099375 356.3653125 -253.089375 356.0353125 -254.109375 355.6953125 C-256.52364774 352.49995151 -258.4929853 349.70184555 -259.109375 345.6953125 C-259.769375 345.6953125 -260.429375 345.6953125 -261.109375 345.6953125 C-261.55667969 344.8496875 -262.00398438 344.0040625 -262.46484375 343.1328125 C-266.32855504 335.80540783 -266.32855504 335.80540783 -270.671875 328.7578125 C-274.39305332 322.97758217 -279.109375 314.62013375 -279.109375 307.6953125 C-279.769375 307.6953125 -280.429375 307.6953125 -281.109375 307.6953125 C-282.71292601 304.18754466 -283.32974364 301.55176371 -283.109375 297.6953125 C-283.769375 297.6953125 -284.429375 297.6953125 -285.109375 297.6953125 C-285.439375 295.0553125 -285.769375 292.4153125 -286.109375 289.6953125 C-286.769375 289.6953125 -287.429375 289.6953125 -288.109375 289.6953125 C-288.92903145 285.76705306 -289.74681106 281.83840766 -290.56298828 277.90942383 C-290.97463572 275.92965245 -291.38769146 273.95017405 -291.80078125 271.97070312 C-297.24068235 245.76630147 -297.24068235 245.76630147 -297.3125 232.421875 C-297.31951431 231.54867615 -297.32652863 230.67547729 -297.33375549 229.77581787 C-297.3512251 226.95726344 -297.35761169 224.13891916 -297.359375 221.3203125 C-297.36004974 220.35845032 -297.36072449 219.39658813 -297.36141968 218.40557861 C-297.33824041 197.60359326 -296.42280728 177.51359606 -289.73242188 157.65087891 C-288.24987135 152.99757573 -287.17379181 148.21584357 -286.00390625 143.4765625 C-285.70871094 142.55875 -285.41351563 141.6409375 -285.109375 140.6953125 C-284.449375 140.3653125 -283.789375 140.0353125 -283.109375 139.6953125 C-282.42464835 137.80766347 -282.42464835 137.80766347 -281.984375 135.6328125 C-281.81679688 134.89933594 -281.64921875 134.16585937 -281.4765625 133.41015625 C-281.35539062 132.84425781 -281.23421875 132.27835938 -281.109375 131.6953125 C-280.449375 131.6953125 -279.789375 131.6953125 -279.109375 131.6953125 C-278.614375 128.7253125 -278.614375 128.7253125 -278.109375 125.6953125 C-277.449375 125.6953125 -276.789375 125.6953125 -276.109375 125.6953125 C-276.2125 124.8496875 -276.315625 124.0040625 -276.421875 123.1328125 C-276.05205867 119.06483288 -274.85457096 117.6670127 -272.41015625 114.5546875 C-270.65413901 112.04458477 -269.784107 109.44072067 -268.79296875 106.5625 C-267.86880234 104.03820546 -266.67615377 101.87517862 -265.109375 99.6953125 C-264.449375 99.6953125 -263.789375 99.6953125 -263.109375 99.6953125 C-262.86316406 98.82132812 -262.61695313 97.94734375 -262.36328125 97.046875 C-261.02306398 93.46461203 -259.39529297 91.07728154 -257.046875 88.0703125 C-256.25023437 87.04164063 -255.45359375 86.01296875 -254.6328125 84.953125 C-254.21870117 84.42235352 -253.80458984 83.89158203 -253.37792969 83.34472656 C-252.08631097 81.66532394 -250.83198419 79.96343542 -249.5859375 78.25 C-249.18125244 77.69650879 -248.77656738 77.14301758 -248.35961914 76.57275391 C-247.22350065 75.01604972 -246.0901982 73.4572915 -244.95703125 71.8984375 C-244.34730469 71.17140625 -243.73757812 70.444375 -243.109375 69.6953125 C-242.449375 69.6953125 -241.789375 69.6953125 -241.109375 69.6953125 C-240.86944824 69.13158936 -240.62952148 68.56786621 -240.38232422 67.98706055 C-237.67351722 63.1102728 -233.1696665 59.41405292 -229.234375 55.5078125 C-228.75817719 55.03277283 -228.28197937 54.55773315 -227.79135132 54.06829834 C-220.96368732 47.27361266 -214.1375235 41.05952032 -206.109375 35.6953125 C-205.16191406 35.01082031 -204.21445313 34.32632813 -203.23828125 33.62109375 C-196.41573551 28.6953125 -196.41573551 28.6953125 -194.109375 28.6953125 C-194.109375 28.0353125 -194.109375 27.3753125 -194.109375 26.6953125 C-192.129375 26.0353125 -190.149375 25.3753125 -188.109375 24.6953125 C-188.109375 24.0353125 -188.109375 23.3753125 -188.109375 22.6953125 C-171.62516447 13.38478618 -171.62516447 13.38478618 -166.109375 12.6953125 C-166.109375 12.0353125 -166.109375 11.3753125 -166.109375 10.6953125 C-163.23532907 9.56786457 -160.35997074 8.44380107 -157.484375 7.3203125 C-156.67613281 7.00320312 -155.86789063 6.68609375 -155.03515625 6.359375 C-147.13640582 3.27693581 -139.1842727 0.84886542 -131.00585938 -1.36132812 C-127.21445375 -2.39887391 -123.51319805 -3.51105894 -119.8203125 -4.859375 C-86.18273552 -16.17849051 -32.50230199 -12.97360794 0 0 Z " fill="#CCCCCC" transform="translate(374.109375,86.3046875)"/>
<path d="M0 0 C2.58310051 0.3351328 5.16643035 0.66850328 7.75 1 C11.64689627 1.50750277 14.55293751 2.1427465 18 4 C19.99110401 4.38290462 21.99100513 4.72604615 24 5 C24 5.66 24 6.32 24 7 C24.53625 7.0515625 25.0725 7.103125 25.625 7.15625 C34.60908897 8.45657867 42.11136305 12.75194564 50 17 C50.94101562 17.5053125 51.88203125 18.010625 52.8515625 18.53125 C54.91602783 19.66359888 56.96071607 20.82314452 59 22 C60.5159375 22.8353125 60.5159375 22.8353125 62.0625 23.6875 C62.701875 24.120625 63.34125 24.55375 64 25 C64 25.66 64 26.32 64 27 C64.763125 27.28875 65.52625 27.5775 66.3125 27.875 C69 29 69 29 72 31 C72 31.66 72 32.32 72 33 C72.556875 33.226875 73.11375 33.45375 73.6875 33.6875 C76.65239972 35.37028092 78.616515 37.56108512 81 40 C82.20007553 41.03052844 83.40875969 42.05110016 84.625 43.0625 C87.12255152 45.17916131 89.28342619 47.17270196 91 50 C91 50.66 91 51.32 91 52 C91.66 52 92.32 52 93 52 C94.73257186 54.23664765 96.31868707 56.45684667 97.875 58.8125 C98.55054932 59.83005371 98.55054932 59.83005371 99.23974609 60.86816406 C103.17913996 66.97055966 107 73.56235691 107 81 C107.66 81 108.32 81 109 81 C114.49641856 97.9386484 114.49641856 97.9386484 113 106 C109.83760031 109.63011595 106.33063201 111.93412814 102 114 C101.34 114 100.68 114 100 114 C100 114.66 100 115.32 100 116 C96.88789226 118.31453239 93.37198936 120.09375399 90 122 C89.31921387 122.38816895 88.63842773 122.77633789 87.93701172 123.17626953 C63.65611733 137 63.65611733 137 58 137 C58 137.66 58 138.32 58 139 C45.09335651 143.56063561 32.20988889 148.0450257 18.8125 150.9375 C17.9558374 151.12401123 17.0991748 151.31052246 16.21655273 151.50268555 C1.59297663 154.48570074 -12.67084864 155.32516155 -27.55419922 155.26074219 C-30.4959778 155.25001467 -33.43714596 155.26070473 -36.37890625 155.2734375 C-52.0583408 155.28718995 -66.73579938 153.88336233 -82 150.0625 C-83.05316406 149.81048828 -84.10632813 149.55847656 -85.19140625 149.29882812 C-90.98670204 147.88083022 -96.44363284 146.16048417 -102 144 C-104.43380347 143.27906794 -106.87144183 142.57097224 -109.3125 141.875 C-130.43978857 135.4583235 -150.68340539 123.58164283 -168 110 C-169.38058594 109.11054688 -169.38058594 109.11054688 -170.7890625 108.203125 C-173 106 -173 106 -173.33984375 102.828125 C-173.14068359 101.05695313 -173.14068359 101.05695313 -172.9375 99.25 C-172.8034375 98.01507813 -172.669375 96.78015625 -172.53125 95.5078125 C-171.9322057 91.55235823 -171.14884482 87.82948273 -170 84 C-169.34 84 -168.68 84 -168 84 C-167.855625 82.72125 -167.71125 81.4425 -167.5625 80.125 C-167.29357254 77.74307106 -167.07773654 76.15547309 -166 74 C-165.34 74 -164.68 74 -164 74 C-163.67 72.02 -163.34 70.04 -163 68 C-162.34 68 -161.68 68 -161 68 C-160.34 65.36 -159.68 62.72 -159 60 C-158.34 60 -157.68 60 -157 60 C-156.75121094 59.28328125 -156.50242188 58.5665625 -156.24609375 57.828125 C-154.87145647 54.70825858 -153.19602711 52.40399648 -151.0625 49.75 C-150.37285156 48.87859375 -149.68320313 48.0071875 -148.97265625 47.109375 C-147 45 -147 45 -144 44 C-143.31513275 42.67592331 -142.65129797 41.34090759 -142 40 C-140 37.75 -140 37.75 -138 36 C-137.34 36 -136.68 36 -136 36 C-136 35.34 -136 34.68 -136 34 C-133.31174952 31.60257624 -130.30360837 29.5931604 -127.375 27.5 C-126.56675781 26.90574219 -125.75851563 26.31148438 -124.92578125 25.69921875 C-120.74402348 22.68699323 -117.08347569 20.2503047 -112 19 C-112 18.34 -112 17.68 -112 17 C-109.50117273 15.89311656 -107.00100271 14.78944889 -104.5 13.6875 C-103.80390625 13.37876953 -103.1078125 13.07003906 -102.390625 12.75195312 C-97.64680019 10.66554869 -92.8624644 8.79251866 -88 7 C-86.845 6.525625 -85.69 6.05125 -84.5 5.5625 C-58.34304415 -4.14418284 -27.30675348 -4.64660374 0 0 Z " fill="#999999" transform="translate(336,380)"/>
<path d="M0 0 C0 0.66 0 1.32 0 2 C0.53625 2.103125 1.0725 2.20625 1.625 2.3125 C4.64498283 3.18670556 7.22438312 4.5272237 10 6 C10.86625 6.45375 11.7325 6.9075 12.625 7.375 C15.37031226 9.25337155 16.95963409 11.38578118 19 14 C20.64639965 15.35827971 22.31295807 16.69254251 24 18 C26.3125 20.125 26.3125 20.125 28 22 C28 22.66 28 23.32 28 24 C28.66 24 29.32 24 30 24 C32.69936534 28.64853486 35.36631768 33.31393213 38 38 C38.50789062 38.90234375 39.01578125 39.8046875 39.5390625 40.734375 C48.45705836 57.47613409 49.99550064 81.75218677 45 100 C42.09898154 108.33084923 38.03821294 116.17336048 34 124 C33.34 124 32.68 124 32 124 C31.814375 124.66 31.62875 125.32 31.4375 126 C29.39191226 130.26905268 26.42815357 133.74163706 23 137 C22.34 137 21.68 137 21 137 C20.731875 137.639375 20.46375 138.27875 20.1875 138.9375 C19 141 19 141 16 142 C15.67 142.99 15.34 143.98 15 145 C9.62857143 149 9.62857143 149 7 149 C7 149.66 7 150.32 7 151 C5.23244474 151.84026396 3.46082737 152.67198722 1.6875 153.5 C0.70136719 153.9640625 -0.28476562 154.428125 -1.30078125 154.90625 C-4 156 -4 156 -7 156 C-7 156.66 -7 157.32 -7 158 C-14.68996599 160.59144622 -21.87208686 162.74332906 -30 163 C-31.00160156 163.03867187 -31.00160156 163.03867187 -32.0234375 163.078125 C-55.97992123 163.90706907 -78.716629 158.61401974 -97 142 C-98.37368345 140.36643049 -99.71937515 138.7074998 -101 137 C-102.0209375 136.2575 -102.0209375 136.2575 -103.0625 135.5 C-105.47675428 133.63089991 -106.45222407 131.63419557 -108 129 C-109.30645884 127.07921041 -110.61931432 125.1627608 -111.9375 123.25 C-117.30694976 115.22045587 -122.60555828 105.99171156 -122 96 C-122.66 96 -123.32 96 -124 96 C-127.4484305 72.20017641 -124.91561636 48.429426 -110.82421875 28.32226562 C-108.37147439 25.07457644 -105.70575622 22.03634673 -103 19 C-102.29875 18.0925 -101.5975 17.185 -100.875 16.25 C-98.8923454 13.87081448 -98.01921553 13.32348738 -95 13 C-95 12.34 -95 11.68 -95 11 C-91.53846154 8 -91.53846154 8 -89 8 C-89 7.34 -89 6.68 -89 6 C-79.4756001 -1.60120376 -65.81668473 -5.86912243 -54 -8 C-53.29230469 -8.17015625 -52.58460938 -8.3403125 -51.85546875 -8.515625 C-33.80869512 -11.57691081 -16.45178704 -7.38334917 0 0 Z " fill="#999999" transform="translate(345,200)"/>
<path d="M0 0 C1.65 0 3.3 0 5 0 C4.67 0.99 4.34 1.98 4 3 C3.34 3 2.68 3 2 3 C1.67 3.99 1.34 4.98 1 6 C0.34 5.67 -0.32 5.34 -1 5 C-0.67 3.35 -0.34 1.7 0 0 Z " fill="#F2F2F2" transform="translate(129,153)"/>
<path d="M0 0 C6.625 0.75 6.625 0.75 10 3 C8.02 3.66 6.04 4.32 4 5 C2.68 3.35 1.36 1.7 0 0 Z " fill="#DEDEDE" transform="translate(248,528)"/>
<path d="M0 0 C0.66 0.66 1.32 1.32 2 2 C0.02 2.33 -1.96 2.66 -4 3 C-4 2.34 -4 1.68 -4 1 C-5.32 0.67 -6.64 0.34 -8 0 C-4.71303767 -0.79953138 -3.28976808 -1.09658936 0 0 Z " fill="#EAEAEA" transform="translate(352,532)"/>
<path d="M0 0 C0.66 0.33 1.32 0.66 2 1 C0.35 2.65 -1.3 4.3 -3 6 C-3 5.34 -3 4.68 -3 4 C-3.66 3.67 -4.32 3.34 -5 3 C-2.625 1.4375 -2.625 1.4375 0 0 Z " fill="#E8E8E8" transform="translate(434,496)"/>
</svg>
